<svg xmlns='http://www.w3.org/2000/svg' class="pikchr" viewBox="0 0 604.742 54.72">
<ellipse cx="49" cy="27" rx="47.232" ry="15.12"  style="fill:rgb(255,255,255);stroke-width:2.16;stroke:rgb(0,0,0);" />
<text x="49" y="27" text-anchor="middle" fill="rgb(0,0,0)" dominant-baseline="central">document</text>
<polygon points="132,27 121,31 121,23" style="fill:rgb(0,0,0)"/>
<path d="M96,27L126,27"  style="fill:none;stroke-width:2.16;stroke:rgb(0,0,0);" />
<path d="M132,42L230,42L230,12L132,12Z"  style="fill:rgb(255,255,255);stroke-width:2.16;stroke:rgb(0,0,0);" />
<text x="181" y="27" text-anchor="middle" fill="rgb(0,0,0)" dominant-baseline="central">ghighlight</text>
<polygon points="266,27 255,31 255,23" style="fill:rgb(0,0,0)"/>
<path d="M230,27L261,27"  style="fill:none;stroke-width:2.16;stroke:rgb(0,0,0);" />
<path d="M266,52L389,52L389,2L266,2Z"  style="fill:rgb(255,255,255);stroke-width:2.16;stroke:rgb(0,0,0);stroke-dasharray:7.2,7.2;" />
<text x="328" y="17" text-anchor="middle" fill="rgb(0,0,0)" dominant-baseline="central">tbl/eqn/pic ...</text>
<text x="328" y="37" text-anchor="middle" fill="rgb(0,0,0)" dominant-baseline="central">optional</text>
<polygon points="425,27 414,31 414,23" style="fill:rgb(0,0,0)"/>
<path d="M389,27L419,27"  style="fill:none;stroke-width:2.16;stroke:rgb(0,0,0);" />
<path d="M425,42L479,42L479,12L425,12Z"  style="fill:rgb(255,255,255);stroke-width:2.16;stroke:rgb(0,0,0);" />
<text x="452" y="27" text-anchor="middle" fill="rgb(0,0,0)" dominant-baseline="central">Groff</text>
<polygon points="515,27 503,31 503,23" style="fill:rgb(0,0,0)"/>
<path d="M479,27L509,27"  style="fill:none;stroke-width:2.16;stroke:rgb(0,0,0);" />
<path d="M515,42L602,42L602,12L515,12Z"  style="fill:rgb(255,255,255);stroke-width:2.16;stroke:rgb(0,0,0);" />
<text x="558" y="27" text-anchor="middle" fill="rgb(0,0,0)" dominant-baseline="central">typsetter</text>
</svg>

